<?xml version="1.0" standalone="no"?>
<!DOCTYPE svg PUBLIC "-//W3C//DTD SVG 20010904//EN"
 "http://www.w3.org/TR/2001/REC-SVG-20010904/DTD/svg10.dtd">
<svg version="1.0" xmlns="http://www.w3.org/2000/svg"
 width="700.000000pt" height="700.000000pt" viewBox="0 0 700.000000 700.000000"
 preserveAspectRatio="xMidYMid meet">
<metadata>
Created by potrace 1.14, written by Peter Selinger 2001-2017
</metadata>
<g transform="translate(0.000000,700.000000) scale(0.100000,-0.100000)"
fill="#000000" stroke="none">
<path d="M3278 6995 c-1 -1 -41 -5 -88 -9 -47 -4 -96 -8 -110 -11 -14 -2 -41
-6 -60 -9 -19 -2 -57 -8 -85 -12 -27 -3 -59 -8 -70 -11 -34 -7 -59 -12 -85
-17 -14 -2 -63 -14 -110 -26 -47 -12 -95 -24 -107 -26 -39 -7 -261 -84 -367
-126 -111 -44 -353 -161 -431 -208 -27 -17 -58 -33 -67 -36 -10 -4 -18 -10
-18 -15 0 -5 -5 -9 -11 -9 -9 0 -131 -78 -185 -119 -12 -9 -32 -23 -44 -31
-36 -24 -240 -189 -289 -234 -318 -292 -582 -639 -771 -1011 -42 -82 -82 -166
-90 -185 -7 -19 -19 -48 -26 -65 -84 -188 -190 -564 -218 -770 -3 -17 -7 -46
-11 -66 -20 -122 -30 -284 -30 -504 0 -196 6 -309 20 -412 10 -67 14 -99 20
-148 4 -27 10 -66 15 -85 5 -19 12 -48 14 -65 27 -149 109 -419 184 -605 39
-97 131 -288 178 -370 20 -36 45 -81 56 -100 11 -19 29 -47 39 -62 11 -14 19
-31 19 -36 0 -6 4 -12 8 -14 5 -2 32 -39 61 -83 87 -131 215 -288 346 -425
213 -223 421 -391 690 -562 308 -195 737 -370 1080 -442 17 -3 41 -9 55 -12
14 -2 61 -11 105 -19 71 -13 106 -18 205 -30 197 -25 652 -25 800 -1 14 3 45
7 70 10 43 6 182 29 245 41 79 15 247 60 353 94 1003 326 1801 1074 2187 2051
43 109 98 271 111 325 1 6 16 68 34 139 32 131 55 254 65 342 3 27 8 60 10 74
11 58 20 247 19 400 0 222 -13 402 -40 550 -1 8 -6 35 -9 60 -11 77 -62 289
-100 415 -67 224 -197 522 -315 725 -81 140 -245 376 -326 470 -12 14 -41 48
-64 75 -163 192 -495 490 -650 581 -16 10 -30 22 -30 26 0 4 -6 8 -13 8 -8 0
-22 9 -32 20 -10 11 -22 20 -26 20 -4 0 -43 22 -86 49 -135 84 -335 182 -528
260 -11 5 -33 14 -50 21 -142 57 -513 155 -665 175 -19 3 -46 7 -60 10 -13 2
-52 7 -86 11 -33 3 -74 8 -90 10 -33 5 -540 14 -546 9z"/>
</g>
</svg>
