<svg xmlns="http://www.w3.org/2000/svg" version="1.1" xmlns:xlink="http://www.w3.org/1999/xlink" xmlns:svgjs="http://svgjs.dev/svgjs" width="2000" height="2000" viewBox="0 0 2000 2000"><g transform="matrix(1,0,0,1,-0.28443113772425477,-0.28443113772459583)"><svg viewBox="0 0 334 334" data-background-color="#ffffff" preserveAspectRatio="xMidYMid meet" height="2000" width="2000" xmlns="http://www.w3.org/2000/svg" xmlns:xlink="http://www.w3.org/1999/xlink"><g id="tight-bounds" transform="matrix(1,0,0,1,0.04749999999998522,0.04750000000001364)"><svg viewBox="0 0 333.90454557049503 333.90454557049503" height="333.90454557049503" width="333.90454557049503"><g><svg></svg></g><g><svg viewBox="0 0 333.90454557049503 333.90454557049503" height="333.90454557049503" width="333.90454557049503"><g><path d="M0 166.952c0-92.205 74.747-166.952 166.952-166.952 92.205 0 166.952 74.747 166.953 166.952 0 92.205-74.747 166.952-166.953 166.953-92.205 0-166.952-74.747-166.952-166.953zM166.952 316.63c82.665 0 149.677-67.013 149.678-149.678 0-82.665-67.013-149.677-149.678-149.677-82.665 0-149.677 67.013-149.677 149.677 0 82.665 67.013 149.677 149.677 149.678z" data-fill-palette-color="tertiary" fill="#556970" stroke="transparent"></path><ellipse rx="160.27418187383762" ry="160.27418187383762" cx="166.95227278524752" cy="166.95227278524752" fill="#556970" stroke="transparent" stroke-width="0" fill-opacity="1" data-fill-palette-color="tertiary"></ellipse></g><g transform="matrix(1,0,0,1,93.13967983396934,71.17305217166896)"><svg viewBox="0 0 147.62518590255635 191.55844122715712" height="191.55844122715712" width="147.62518590255635"><g><svg viewBox="0 0 147.62518590255635 191.55844122715712" height="191.55844122715712" width="147.62518590255635"><g><svg viewBox="0 0 147.62518590255635 191.55844122715712" height="191.55844122715712" width="147.62518590255635"><g><svg viewBox="0 0 147.62518590255635 191.55844122715712" height="191.55844122715712" width="147.62518590255635"><g id="textblocktransform"><svg viewBox="0 0 147.62518590255635 191.55844122715712" height="191.55844122715712" width="147.62518590255635" id="textblock"><g><svg viewBox="0 0 147.62518590255635 191.55844122715712" height="191.55844122715712" width="147.62518590255635"><g transform="matrix(1,0,0,1,0,0)"><svg width="147.62518590255635" viewBox="0.49 -38.87 30.520000000000003 39.599999999999994" height="191.55844122715712" data-palette-color="#ffffff"><path d="M16.7 0.73L16.7 0.73Q13.99 0.73 11.69-0.29 9.4-1.32 8.18-3.25L8.18-3.25 7.2 0 0.49 0 0.49-16.16 7.57-16.16 7.57-14.28Q7.57-10.6 8.63-9.25 9.69-7.91 11.08-7.91L11.08-7.91Q12.57-7.91 13.49-9.19 14.4-10.47 14.4-13.79L14.4-13.79 14.4-30.44 6.84-30.44 6.84-38.87 31.01-38.87 31.01-30.44 27.1-30.44 27.1-11.6Q27.1-5.91 24.43-2.59 21.75 0.73 16.7 0.73Z" opacity="1" transform="matrix(1,0,0,1,0,0)" fill="#ffffff" class="wordmark-text-0" data-fill-palette-color="quaternary" id="text-0"></path></svg></g></svg></g></svg></g></svg></g></svg></g></svg></g></svg></g></svg></g><defs></defs></svg><rect width="333.90454557049503" height="333.90454557049503" fill="none" stroke="none" visibility="hidden"></rect></g></svg></g></svg>